<svg width="17" height="17" viewBox="0 0 17 17" fill="none" xmlns="http://www.w3.org/2000/svg">
<g clip-path="url(#clip0_4_7070)">
<path d="M8.43483 1.51968C10.6869 1.51968 10.954 1.52811 11.8432 1.56888C12.7626 1.61105 13.7094 1.82052 14.3793 2.49038C15.0555 3.16658 15.2586 4.10425 15.3008 5.02646C15.3416 5.91563 15.35 6.18273 15.35 8.43483C15.35 10.6869 15.3416 10.954 15.3008 11.8432C15.2593 12.7577 15.0449 13.7136 14.3793 14.3793C13.7031 15.0555 12.7661 15.2586 11.8432 15.3008C10.954 15.3416 10.6869 15.35 8.43483 15.35C6.18273 15.35 5.91563 15.3416 5.02646 15.3008C4.11901 15.2593 3.15041 15.04 2.49038 14.3793C1.81771 13.7066 1.61105 12.7598 1.56888 11.8432C1.52811 10.954 1.51968 10.6869 1.51968 8.43483C1.51968 6.18273 1.52811 5.91563 1.56888 5.02646C1.61035 4.11549 1.82684 3.15392 2.49038 2.49038C3.16517 1.8156 4.10636 1.61105 5.02646 1.56888C5.91563 1.52811 6.18273 1.51968 8.43483 1.51968ZM8.43483 0C6.14407 0 5.85658 0.00984064 4.95687 0.050609C3.65298 0.110356 2.35824 0.473053 1.41565 1.41565C0.469539 2.36175 0.110356 3.65369 0.050609 4.95687C0.00984064 5.85658 0 6.14407 0 8.43483C0 10.7256 0.00984064 11.0131 0.050609 11.9128C0.110356 13.2153 0.474459 14.5135 1.41565 15.454C2.36105 16.3994 3.65509 16.7593 4.95687 16.8191C5.85658 16.8598 6.14407 16.8697 8.43483 16.8697C10.7256 16.8697 11.0131 16.8598 11.9128 16.8191C13.216 16.7593 14.5121 16.3959 15.454 15.454C16.4008 14.5072 16.7593 13.216 16.8191 11.9128C16.8598 11.0131 16.8697 10.7256 16.8697 8.43483C16.8697 6.14407 16.8598 5.85658 16.8191 4.95687C16.7593 3.65298 16.3959 2.35754 15.454 1.41565C14.51 0.471648 13.2125 0.109653 11.9128 0.050609C11.0131 0.00984064 10.7256 0 8.43483 0Z" fill="white" style="fill:white;fill-opacity:1;"/>
<path d="M8.4348 4.10352C6.04282 4.10352 4.10352 6.04282 4.10352 8.4348C4.10352 10.8268 6.04282 12.7661 8.4348 12.7661C10.8268 12.7661 12.7661 10.8268 12.7661 8.4348C12.7661 6.04282 10.8268 4.10352 8.4348 4.10352ZM8.4348 11.2464C6.88209 11.2464 5.62319 9.98751 5.62319 8.4348C5.62319 6.88209 6.88209 5.62319 8.4348 5.62319C9.98751 5.62319 11.2464 6.88209 11.2464 8.4348C11.2464 9.98751 9.98751 11.2464 8.4348 11.2464Z" fill="white" style="fill:white;fill-opacity:1;"/>
<path d="M12.9376 4.94428C13.4966 4.94428 13.9498 4.49111 13.9498 3.9321C13.9498 3.37309 13.4966 2.91992 12.9376 2.91992C12.3786 2.91992 11.9254 3.37309 11.9254 3.9321C11.9254 4.49111 12.3786 4.94428 12.9376 4.94428Z" fill="white" style="fill:white;fill-opacity:1;"/>
</g>
<defs>
<clipPath id="clip0_4_7070">
<rect width="16.8697" height="16.8697" fill="white" style="fill:white;fill-opacity:1;"/>
</clipPath>
</defs>
</svg>
