<svg width="17" height="17" viewBox="0 0 17 17" fill="none" xmlns="http://www.w3.org/2000/svg">
<g clip-path="url(#clip0_4_7061)">
<path d="M14.7321 14.7057H12.1981V10.7373C12.1981 9.79086 12.1812 8.5731 10.8801 8.5731C9.56043 8.5731 9.35818 9.60377 9.35818 10.669V14.7057H6.825V6.54462H9.25789V7.65957H9.2916C9.78796 6.81177 10.7099 6.30528 11.6916 6.34152C14.2602 6.34152 14.733 8.03122 14.733 10.2282L14.7321 14.7057ZM3.96569 5.42884C3.15332 5.42884 2.49516 4.77066 2.49516 3.95826C2.49516 3.14586 3.15332 2.48768 3.96569 2.48768C4.77806 2.48768 5.43621 3.14586 5.43621 3.95826C5.43621 4.77066 4.77806 5.42884 3.96569 5.42884ZM5.23228 14.7057H2.69572V6.54462H5.23228V14.7057ZM15.9953 0.134747H1.42239C0.7339 0.127162 0.169285 0.679157 0.160858 1.36767V16.001C0.169285 16.6904 0.7339 17.2424 1.42239 17.2348H15.9953C16.6855 17.2432 17.2527 16.6912 17.2619 16.001V1.36683C17.2518 0.676628 16.6847 0.124634 15.9953 0.133904" fill="white" style="fill:white;fill-opacity:1;"/>
</g>
<defs>
<clipPath id="clip0_4_7061">
<rect width="16.8697" height="16.8697" fill="white" style="fill:white;fill-opacity:1;"/>
</clipPath>
</defs>
</svg>
