<svg width="18" height="17" viewBox="0 0 18 17" fill="none" xmlns="http://www.w3.org/2000/svg">
<path d="M2.91941 5.3985C4.5337 5.3985 5.84282 4.19015 5.84282 2.69893C5.84282 1.2077 4.58091 0.0439165 3.00651 0.00129166C2.98923 0.00129166 2.97127 0.00129166 2.95399 0C2.94202 0 2.93072 0 2.91875 0C1.35499 0 0.077789 1.13408 0 2.56072V2.83778C0.077789 4.26443 1.35499 5.3985 2.91941 5.3985Z" fill="#3B6BE8" style="fill:#3B6BE8;fill:color(display-p3 0.2314 0.4196 0.9098);fill-opacity:1;"/>
<path d="M17.7166 5.95521C17.7166 3.4552 15.8829 1.35043 13.3897 0.725269C12.8983 0.601915 12.3817 0.536686 11.8485 0.536686C9.44372 0.536686 7.37732 1.87227 6.47045 3.78328C6.4033 3.92536 6.34213 4.07003 6.28828 4.21793C5.73445 5.29517 4.54567 6.03982 3.16874 6.03982C3.15212 6.03982 3.13616 6.03982 3.11954 6.03982C3.10225 6.03982 3.0843 6.03982 3.06701 6.03852C3.05505 6.03852 3.04374 6.03852 3.03178 6.03852C1.45672 6.03852 0.170205 7.181 0.0917511 8.61733V13.7026C0.0917511 15.1951 1.40153 16.4048 3.01781 16.4048H3.84357C5.45986 16.4048 6.76964 15.1951 6.76964 13.7026V9.50018C6.76964 9.43947 6.77163 9.38006 6.77496 9.32064V8.0561C6.77496 6.94269 7.75297 6.03982 8.95903 6.03982C10.1651 6.03982 11.1431 6.94269 11.1431 8.0561V14.2968C11.4363 15.5032 12.6031 16.4048 13.998 16.4048H14.7899C16.4062 16.4048 17.7159 15.1951 17.7159 13.7026V7.1584C17.7159 6.93171 17.7066 6.70825 17.688 6.48932C17.7066 6.31365 17.7166 6.13475 17.7166 5.95521Z" fill="#262626" style="fill:#262626;fill:color(display-p3 0.1490 0.1490 0.1490);fill-opacity:1;"/>
</svg>
