<svg width="86" height="17" viewBox="0 0 86 17" fill="none" xmlns="http://www.w3.org/2000/svg">
<path d="M2.91941 5.3985C4.5337 5.3985 5.84282 4.19015 5.84282 2.69893C5.84282 1.2077 4.58091 0.0439165 3.00651 0.00129166C2.98923 0.00129166 2.97127 0.00129166 2.95399 0C2.94202 0 2.93072 0 2.91875 0C1.35499 0 0.077789 1.13408 0 2.56072V2.83778C0.077789 4.26443 1.35499 5.3985 2.91941 5.3985Z" fill="white" style="fill:white;fill-opacity:1;"/>
<path d="M76.1694 16.7458C74.4886 16.7458 72.9634 16.4028 71.5951 15.7163C70.2262 15.0298 69.1385 14.0798 68.3307 12.8656C67.5222 11.6521 67.1186 10.2687 67.1186 8.71679C67.1186 7.16485 67.5229 5.75242 68.3307 4.53826C69.1385 3.32474 70.2268 2.36956 71.5951 1.6727C72.9634 0.976497 74.488 0.627748 76.1694 0.627748C77.8508 0.627748 79.4073 0.976497 80.7756 1.6727C82.1439 2.36956 83.2322 3.32474 84.0407 4.53826C84.8485 5.75242 85.2528 7.13515 85.2528 8.68708C85.2528 10.239 84.8485 11.6521 84.0407 12.8656C83.2322 14.0798 82.1385 15.0298 80.7596 15.7163C79.38 16.4028 77.8502 16.7458 76.1694 16.7458ZM76.1694 12.1494C76.8808 12.1494 77.4945 12.0002 78.0117 11.7018C78.529 11.4034 78.9272 10.9901 79.2078 10.4631C79.4877 9.93612 79.628 9.34389 79.628 8.68708C79.628 8.03027 79.4877 7.41414 79.2078 6.89619C78.9272 6.37888 78.529 5.97071 78.0117 5.67234C77.4945 5.37396 76.8801 5.22478 76.1694 5.22478C75.4587 5.22478 74.8762 5.37396 74.359 5.67234C73.8417 5.97071 73.4375 6.37888 73.1469 6.89619C72.8564 7.41414 72.7108 8.01089 72.7108 8.68708C72.7108 9.36326 72.8564 9.93612 73.1469 10.4631C73.4381 10.9901 73.8417 11.4034 74.359 11.7018C74.8762 12.0002 75.4793 12.1494 76.1694 12.1494Z" fill="white" style="fill:white;fill-opacity:1;"/>
<path d="M35.8202 7.77452C35.763 6.42473 35.4385 5.24157 34.8442 4.22503C34.1866 3.10128 33.2545 2.22489 32.0477 1.59843C30.8403 0.97133 29.4182 0.658102 27.7806 0.658102C26.294 0.658102 24.8925 0.97133 23.5787 1.59843C22.2636 2.22553 21.2131 3.13099 20.4273 4.3148C19.6401 5.49925 19.2471 6.96658 19.2471 8.71743C19.2471 10.3094 19.6567 11.6773 20.4758 12.8217C21.2942 13.9661 22.4205 14.847 23.854 15.4631C25.2867 16.0806 26.9409 16.3886 28.8158 16.3886H29.5618C30.7938 16.3886 31.7924 15.4664 31.7924 14.3291V14.072C31.7924 12.9347 30.7938 12.0125 29.5618 12.0125H28.4601C27.8564 12.0125 27.3252 11.997 26.9077 11.997C26.4104 11.997 25.9769 11.7025 25.6644 11.4041C25.6611 11.4009 25.6584 11.3983 25.6551 11.395C25.2409 10.9953 25.5613 10.3294 26.1604 10.3294H34.3003C34.9645 10.323 35.7776 9.57187 35.8016 9.00354C35.8208 8.70387 35.8301 8.43972 35.8301 8.21045C35.8301 8.0632 35.8262 7.91789 35.8202 7.77452ZM25.824 7.31404C25.2715 7.31404 24.8965 6.79415 25.1099 6.32334L25.1139 6.31429C25.2535 6.00559 25.4423 5.73175 25.6797 5.49344C25.9164 5.25448 26.2076 5.07107 26.5526 4.94126C26.897 4.81209 27.296 4.74751 27.7487 4.74751C28.1151 4.74751 28.4435 4.79207 28.7347 4.88184C29.0259 4.97096 29.2733 5.09109 29.478 5.23963C29.6822 5.38882 29.871 5.57288 30.0438 5.79182C30.216 6.0114 30.3397 6.24454 30.4155 6.49319C30.4175 6.50029 30.4195 6.5074 30.4221 6.5145C30.5405 6.9175 30.2101 7.31404 29.7579 7.31404H25.824Z" fill="white" style="fill:white;fill-opacity:1;"/>
<path d="M17.7166 5.95521C17.7166 3.4552 15.8829 1.35043 13.3897 0.725269C12.8983 0.601915 12.3817 0.536686 11.8485 0.536686C9.44372 0.536686 7.37732 1.87227 6.47045 3.78328C6.4033 3.92536 6.34213 4.07003 6.28828 4.21793C5.73445 5.29517 4.54567 6.03982 3.16874 6.03982C3.15212 6.03982 3.13616 6.03982 3.11954 6.03982C3.10225 6.03982 3.0843 6.03982 3.06701 6.03852C3.05505 6.03852 3.04374 6.03852 3.03178 6.03852C1.45672 6.03852 0.170205 7.181 0.0917511 8.61733V13.7026C0.0917511 15.1951 1.40153 16.4048 3.01781 16.4048H3.84357C5.45986 16.4048 6.76964 15.1951 6.76964 13.7026V9.50018C6.76964 9.43947 6.77163 9.38006 6.77496 9.32064V8.0561C6.77496 6.94269 7.75297 6.03982 8.95903 6.03982C10.1651 6.03982 11.1431 6.94269 11.1431 8.0561V14.2968C11.4363 15.5032 12.6031 16.4048 13.998 16.4048H14.7899C16.4062 16.4048 17.7159 15.1951 17.7159 13.7026V7.1584C17.7159 6.93171 17.7066 6.70825 17.688 6.48932C17.7066 6.31365 17.7159 6.1354 17.7159 5.95586L17.7166 5.95521Z" fill="white" style="fill:white;fill-opacity:1;"/>
<path d="M65.8973 7.30306C65.8973 3.57468 62.188 0.552832 57.6117 0.552832C57.4242 0.552832 57.2387 0.55929 57.0546 0.569623C56.8704 0.559936 56.6849 0.552832 56.4974 0.552832C54.3911 0.552832 52.4697 1.19479 51.0076 2.24943C50.6533 1.97366 50.2524 1.72631 49.7996 1.50866C49.5742 1.40081 49.3335 1.30523 49.0842 1.2161C47.9991 0.790498 46.7824 0.552186 45.4973 0.552186C40.9217 0.552186 37.2117 3.57468 37.2117 7.30242C37.2117 7.58142 37.235 7.85589 37.2756 8.1265C37.2749 8.14071 37.2722 8.15427 37.2716 8.16848V13.6303C37.2716 15.2332 38.5813 16.532 40.1976 16.532H41.0234C42.5373 16.532 43.7819 15.3921 43.9342 13.9312C43.9441 13.8324 43.9501 13.7317 43.9501 13.6303V9.11656C43.9501 9.05133 43.9521 8.98739 43.9554 8.9241V7.56592C43.9554 6.36984 44.9335 5.3998 46.1395 5.3998C47.1209 5.3998 47.9513 6.0424 48.2265 6.9259C48.2179 7.05054 48.2132 7.17583 48.2132 7.30242C48.2132 7.58142 48.2365 7.85589 48.2771 8.1265C48.2764 8.14071 48.2737 8.15427 48.2731 8.16848V13.6303C48.2731 13.8137 48.291 13.9932 48.3243 14.1676V14.2684C48.6042 15.5051 49.6806 16.4409 50.991 16.5242C51.0442 16.5281 51.0981 16.5301 51.1519 16.5313C51.1612 16.5313 51.1705 16.5326 51.1798 16.5326H52.0262C52.0468 16.5326 52.0674 16.5301 52.088 16.5301C52.1087 16.5294 52.1286 16.5281 52.1492 16.5275C53.6066 16.4674 54.7887 15.3534 54.937 13.9325C54.947 13.8337 54.9529 13.733 54.9529 13.6316V9.11785C54.9529 9.05262 54.9549 8.98868 54.9583 8.92539V7.56721C54.9583 6.39954 55.8904 5.45017 57.0572 5.40561C58.2234 5.45017 59.1562 6.39954 59.1562 7.56721V8.92539C59.1595 8.98868 59.1615 9.05262 59.1615 9.11785V13.6316C59.1615 13.733 59.1668 13.8337 59.1775 13.9325C59.3291 15.394 60.5744 16.5333 62.0883 16.5333H62.914C64.5303 16.5333 65.8401 15.2339 65.8401 13.6316V8.16977C65.8394 8.15556 65.8367 8.142 65.8361 8.12779C65.8766 7.85783 65.8999 7.58335 65.8999 7.30371L65.8973 7.30306Z" fill="white" style="fill:white;fill-opacity:1;"/>
</svg>
