<svg width="17" height="17" viewBox="0 0 17 17" fill="none" xmlns="http://www.w3.org/2000/svg">
<g clip-path="url(#clip0_4_7066)">
<path fill-rule="evenodd" clip-rule="evenodd" d="M14.3834 2.45172C12.8047 0.871599 10.7059 0.000702903 8.46992 0C3.86239 0 0.112408 3.74928 0.110299 8.35892C0.109596 9.8322 0.494787 11.2703 1.22651 12.5384L0.0400085 16.8697L4.47111 15.7071C5.69205 16.3734 7.06693 16.7242 8.4657 16.7249H8.46922C13.076 16.7249 16.8267 12.9749 16.8288 8.36524C16.8302 6.13212 15.9615 4.03115 14.3834 2.45172ZM8.46992 15.3127H8.46711C7.22016 15.3127 5.99781 14.9774 4.9308 14.3441L4.67706 14.1937L2.0475 14.8833L2.7497 12.3191L2.58452 12.0562C1.88864 10.9498 1.52173 9.67124 1.52243 8.35892C1.52384 4.5281 4.64121 1.41143 8.47343 1.41143C10.3291 1.41143 12.0737 2.13542 13.3853 3.44844C14.6969 4.76217 15.4188 6.50747 15.4181 8.36384C15.416 12.1961 12.2993 15.3127 8.46992 15.3127ZM12.2811 10.1091C12.0723 10.0044 11.0454 9.49903 10.8535 9.42944C10.6623 9.35985 10.5231 9.32471 10.3832 9.53347C10.2433 9.74223 9.84409 10.2132 9.72179 10.3531C9.60019 10.4922 9.47788 10.5098 9.26912 10.4051C9.06036 10.3003 8.38698 10.0803 7.58918 9.36829C6.96852 8.8144 6.54889 8.13048 6.42728 7.92101C6.30568 7.71154 6.41463 7.59908 6.51866 7.49505C6.61285 7.40156 6.72742 7.25114 6.83216 7.12884C6.93759 7.00794 6.97203 6.92078 7.04232 6.7809C7.11191 6.64173 7.07747 6.51942 7.02475 6.41469C6.97203 6.31066 6.55451 5.28231 6.38089 4.86409C6.21149 4.4564 6.03928 4.51193 5.91065 4.50561C5.78905 4.49928 5.64987 4.49858 5.51 4.49858C5.37082 4.49858 5.14449 4.55059 4.9533 4.76006C4.76211 4.96952 4.22228 5.47491 4.22228 6.50255C4.22228 7.5309 4.97087 8.5241 5.0749 8.66327C5.17893 8.80245 6.54748 10.9126 8.64283 11.8172C9.14119 12.0323 9.5306 12.1609 9.83355 12.2572C10.334 12.4161 10.7895 12.3936 11.1494 12.3402C11.5507 12.2804 12.3851 11.8348 12.5594 11.347C12.7337 10.8591 12.7337 10.4402 12.681 10.3538C12.629 10.2659 12.4898 10.2139 12.2811 10.1091Z" fill="white" style="fill:white;fill-opacity:1;"/>
</g>
<defs>
<clipPath id="clip0_4_7066">
<rect width="16.8697" height="16.8697" fill="white" style="fill:white;fill-opacity:1;"/>
</clipPath>
</defs>
</svg>
